<svg version="1.2" xmlns="http://www.w3.org/2000/svg" viewBox="0 0 1024 1024" width="1024" height="1024"><defs><linearGradient id="P" gradientUnits="userSpaceOnUse"/><linearGradient id="g1" x2="1" href="#P" gradientTransform="matrix(0,260,-700,0,162,627)"><stop stop-color="#6bcb77"/><stop offset="1" stop-color="#4a90d9"/></linearGradient><linearGradient id="g2" x2="1" href="#P" gradientTransform="matrix(0,240,-700,0,162,507)"><stop stop-color="#6bcb77"/><stop offset="1" stop-color="#4a90d9"/></linearGradient><linearGradient id="g3" x2="1" href="#P" gradientTransform="matrix(0,260,-700,0,162,447)"><stop stop-color="#ffd93d"/><stop offset="1" stop-color="#f5a623"/></linearGradient><linearGradient id="g4" x2="1" href="#P" gradientTransform="matrix(0,240,-700,0,162,327)"><stop stop-color="#ffd93d"/><stop offset="1" stop-color="#f5a623"/></linearGradient><linearGradient id="g5" x2="1" href="#P" gradientTransform="matrix(0,260,-700,0,162,267)"><stop stop-color="#ff6b6b"/><stop offset="1" stop-color="#dc382d"/></linearGradient><linearGradient id="g6" x2="1" href="#P" gradientTransform="matrix(0,240,-700,0,162,147)"><stop stop-color="#ff6b6b"/><stop offset="1" stop-color="#dc382d"/></linearGradient></defs><style>.a{fill:#1c1c1e}.b{fill:url(#g1)}.c{fill:url(#g2)}.d{fill:url(#g3)}.e{fill:url(#g4)}.f{fill:url(#g5)}.g{fill:url(#g6)}</style><path fill-rule="evenodd" class="a" d="m180 0h664c99.4 0 180 80.6 180 180v664c0 99.4-80.6 180-180 180h-664c-99.4 0-180-80.6-180-180v-664c0-99.4 80.6-180 180-180z"/><path class="b" d="m162 627v140c0 31.8 36.9 62.3 102.5 84.9 65.7 22.5 154.7 35.1 247.5 35.1 92.8 0 181.8-12.6 247.5-35.1 65.6-22.6 102.5-53.1 102.5-84.9v-140c0 31.8-36.9 62.3-102.5 84.9-65.7 22.5-154.7 35.1-247.5 35.1-92.8 0-181.8-12.6-247.5-35.1-65.6-22.6-102.5-53.1-102.5-84.9z"/><path fill-rule="evenodd" class="c" d="m512 747c-193.6 0-350-53.6-350-120 0-66.4 156.4-120 350-120 193.5 0 350 53.6 350 120 0 66.4-156.5 120-350 120z"/><path class="d" d="m162 447v140c0 31.8 36.9 62.3 102.5 84.9 65.7 22.5 154.7 35.1 247.5 35.1 92.8 0 181.8-12.6 247.5-35.1 65.6-22.6 102.5-53.1 102.5-84.9v-140c0 31.8-36.9 62.3-102.5 84.9-65.7 22.5-154.7 35.1-247.5 35.1-92.8 0-181.8-12.6-247.5-35.1-65.6-22.6-102.5-53.1-102.5-84.9z"/><path fill-rule="evenodd" class="e" d="m512 567c-193.6 0-350-53.6-350-120 0-66.4 156.4-120 350-120 193.5 0 350 53.6 350 120 0 66.4-156.5 120-350 120z"/><path class="f" d="m162 267v140c0 31.8 36.9 62.3 102.5 84.9 65.7 22.5 154.7 35.1 247.5 35.1 92.8 0 181.8-12.6 247.5-35.1 65.6-22.6 102.5-53.1 102.5-84.9v-140c0 31.8-36.9 62.3-102.5 84.9-65.7 22.5-154.7 35.1-247.5 35.1-92.8 0-181.8-12.6-247.5-35.1-65.6-22.6-102.5-53.1-102.5-84.9z"/><path fill-rule="evenodd" class="g" d="m512 387c-193.6 0-350-53.6-350-120 0-66.4 156.4-120 350-120 193.5 0 350 53.6 350 120 0 66.4-156.5 120-350 120z"/></svg>